<?xml version="1.0" encoding="UTF-8" standalone="no"?>
<!DOCTYPE svg PUBLIC "-//W3C//DTD SVG 1.1//EN" "http://www.w3.org/Graphics/SVG/1.1/DTD/svg11.dtd">
<svg width="500px" height="270px" version="1.1" xmlns="http://www.w3.org/2000/svg"
     xmlns:xlink="http://www.w3.org/1999/xlink" xml:space="preserve" xmlns:serif="http://www.serif.com/"
     style="fill-rule:evenodd;clip-rule:evenodd;stroke-linejoin:round;stroke-miterlimit:2;">
    <g id="Text">
        <path d="M370.995,255.224L329.043,255.224L329.043,172.234L252.479,172.234L252.479,255.224L210.526,255.224L210.526,64.031L252.479,64.031L252.479,136.516L329.043,136.516L329.043,64.031L370.995,64.031L370.995,111.304L386.728,64.031L428.68,64.031L500,254.174L456.998,254.174L442.5,212.153L370.995,212.153L370.995,255.224ZM407.604,111.593L383.581,180.638L431.626,180.638L407.604,111.593Z"
              style="fill:rgb(12,36,108);fill-rule:nonzero;"/>
        <g transform="matrix(0.712904,0,0,0.712904,203.824,-6.08394)">
            <path d="M285.844,10.72C311.358,10.72 332.072,31.434 332.072,56.948C332.072,82.462 311.358,103.176 285.844,103.176C260.33,103.176 239.615,82.462 239.615,56.948C239.615,31.434 260.33,10.72 285.844,10.72ZM285.844,31.985C299.621,31.985 310.807,43.17 310.807,56.948C310.807,70.725 299.621,81.911 285.844,81.911C272.066,81.911 260.88,70.725 260.88,56.948C260.88,43.17 272.066,31.985 285.844,31.985Z"
                  style="fill:rgb(12,36,108);"/>
        </g>
    </g>
    <g id="Boat">
        <path d="M164.787,210.783L0,223.916C0,242.075 13.921,255.81 30.702,258.981C47.483,262.153 68.922,260.86 114.662,253.346C136.591,245.206 147.87,242.701 164.787,210.783Z"
              style="fill:rgb(15,95,165);fill-rule:nonzero;"/>
        <path d="M69.041,211.02L149.055,203.557C151.629,181.336 142.857,131.243 69.041,51.093C71.429,78.645 97.118,178.206 69.041,211.02Z"
              style="fill:rgb(15,95,165);fill-rule:nonzero;"/>
        <path d="M61.759,210.005C79.574,176.327 75.815,137.505 66.772,93.605C58.271,160.047 32.581,180.71 5.639,214.523L61.759,210.005Z"
              style="fill:rgb(15,95,165);fill-rule:nonzero;"/>
        <g id="Waves">
            <path d="M98.455,238.112C74.85,237.172 56.889,242.76 15.627,265.478C29.965,262.503 56.933,254.417 97.386,255.901C113.764,256.502 150.862,254.546 167.591,237.102C146.614,245.96 127.96,239.287 98.455,238.112Z"
                  style="fill:rgb(190,225,255);fill-rule:nonzero;"/>
            <path d="M100.961,241.869C77.357,240.929 59.395,246.517 18.133,269.235C32.471,266.26 59.439,258.174 99.892,259.658C116.27,260.259 153.369,258.303 170.097,240.859C149.12,249.717 130.466,243.044 100.961,241.869Z"
                  style="fill:rgb(139,197,248);fill-rule:nonzero;"/>
        </g>
    </g>
</svg>
